# This file uses centimeters as units for non-parametric coordinates.

mtllib BBF_Export_Snow.mtl
g default
v -4.583334 8.649487 4.583334
v 4.583334 8.044666 4.966582
v -4.583334 10.309952 4.583333
v 4.583334 10.832715 5.061507
v -5.703833 10.310685 -4.854583
v 4.583334 9.765606 -4.987688
v -5.198325 8.686185 -4.583334
v 4.583334 7.883922 -4.870754
v -5.936256 10.511529 -0.000000
v 5.789062 9.121615 -6.218224
v -0.014530 8.071938 -6.019155
v -5.894500 9.383918 -5.789062
v 5.789062 8.100742 -0.000000
v -5.800207 8.302410 0.000000
v 0.000000 8.108761 5.789062
v 5.789062 9.517754 6.538873
v 0.000000 10.565170 5.789062
v -5.789062 9.474942 5.789062
v 5.789062 10.346020 0.000000
v -0.100792 10.581421 -5.910284
v 0.000000 9.221295 7.906251
v -0.129359 10.901327 -0.000000
v 0.000000 9.316396 -8.281964
v 0.000000 7.875579 0.000000
v 7.906250 9.366978 0.000000
v -7.906250 9.454989 -0.000000
v -2.937500 8.810604 6.875001
v 2.937500 8.669420 7.014658
v 2.937500 9.977592 6.981803
v -2.937500 9.910760 6.875001
v -2.937500 10.920646 2.937500
v 2.937500 11.185489 2.943615
v 2.937500 10.739670 -2.960233
v -4.704121 10.833969 -2.937500
v -3.135297 10.051552 -6.875001
v 2.937500 9.866989 -8.169443
v 2.937500 8.615478 -8.199133
v -3.038293 8.768094 -6.875001
v -3.802772 8.107721 -2.937500
v 2.937500 7.554202 -2.937500
v 2.937500 8.104441 2.978993
v -2.937501 8.171891 2.937500
v 6.875001 8.792117 3.026744
v 6.875001 8.353557 -2.937500
v 6.875001 9.541328 -2.937500
v 6.875001 10.005143 3.003915
v -6.952037 8.942238 -2.937500
v -6.875001 8.930744 2.937500
v -6.875001 9.996961 2.937500
v -7.055143 10.053785 -2.937500
v -0.000000 8.568769 7.375000
v 3.156250 9.335221 7.499575
v 0.000000 9.808885 7.375001
v -3.156250 9.395443 7.375000
v -0.000000 11.145683 3.156250
v 3.156250 10.727664 0.000000
v -0.730575 10.966702 -3.156250
v -3.896427 10.957887 -0.000000
v -0.000000 10.206725 -7.692133
v 3.156250 9.270855 -8.772965
v 0.000000 8.646776 -7.777877
v -3.183881 9.278985 -7.375000
v -0.062474 7.668659 -3.156250
v 3.156250 7.961170 -0.000000
v 0.000000 8.140091 3.156250
v -3.303443 7.916175 0.000000
v 7.375000 8.717025 0.000000
v 7.375000 9.036878 -3.156250
v 7.375001 9.920182 -0.000000
v 7.375000 9.387319 3.231525
v -7.375000 8.864298 -0.000000
v -7.375000 9.462759 3.156250
v -7.375001 10.021061 0.000000
v -7.396376 9.461893 -3.156250
v -2.718750 8.357675 5.390625
v 2.718750 8.076442 5.525816
v 5.390625 8.684031 6.100111
v 5.390625 10.450102 6.196851
v 2.718750 10.762658 5.458014
v -2.718750 10.479127 5.390625
v -5.390625 9.969783 5.390625
v -5.390625 8.986813 5.390625
v 5.390625 10.634978 2.772238
v 5.390625 10.329886 -2.718750
v 2.718750 10.399693 -6.139120
v -3.775479 10.724213 -5.390625
v -6.436557 10.528227 -2.718750
v -5.390625 10.425285 2.718750
v 5.390625 9.542485 -5.863385
v 5.390625 8.442420 -5.800372
v 2.718750 7.869867 -6.156739
v -3.269981 8.502077 -5.390625
v -5.614096 8.901136 -5.390625
v -5.772554 9.987209 -5.390625
v 5.390625 7.727443 -2.718750
v 5.390625 8.250086 2.818969
v -5.390625 8.445886 2.718750
v -5.888455 8.592881 -2.718750
vt 0.269206 0.910212
vt 0.342475 0.893244
vt 0.369024 0.907900
vt 0.778828 0.072691
vt 0.248853 0.850469
vt 0.303789 0.834970
vt 0.382685 0.842324
vt 0.751576 0.180905
vt 0.723351 0.108487
vt 0.242148 0.800125
vt 0.298850 0.783394
vt 0.769871 0.253390
vt 0.348689 0.775505
vt 0.683063 0.209670
vt 0.660994 0.146060
vt 0.205162 0.754162
vt 0.260080 0.737710
vt 0.696583 0.269376
vt 0.814620 0.320693
vt 0.320292 0.714552
vt 0.627571 0.239843
vt 0.598093 0.210402
vt 0.187060 0.704322
vt 0.220296 0.710546
vt 0.628493 0.281063
vt 0.741607 0.319737
vt 0.810882 0.393470
vt 0.888768 0.518198
vt 0.663686 0.325964
vt 0.747407 0.378140
vt 0.799918 0.474444
vt 0.679587 0.373142
vt 0.725850 0.437255
vt 0.666277 0.409362
vt 0.380659 0.495006
vt 0.418364 0.502366
vt 0.406355 0.546005
vt 0.361072 0.517004
vt 0.365749 0.449190
vt 0.431289 0.433014
vt 0.474989 0.489676
vt 0.461668 0.556324
vt 0.388151 0.601006
vt 0.335846 0.564892
vt 0.325806 0.467572
vt 0.556052 0.174832
vt 0.523803 0.270088
vt 0.494271 0.426824
vt 0.522270 0.514039
vt 0.516764 0.573160
vt 0.451863 0.621122
vt 0.049206 0.923013
vt 0.312258 0.628644
vt 0.289604 0.517344
vt 0.545217 0.463067
vt 0.561267 0.535346
vt 0.572205 0.577425
vt 0.518785 0.631221
vt 0.017045 0.864722
vt 0.085302 0.896050
vt 0.102621 0.939528
vt 0.585833 0.497392
vt 0.617685 0.546760
vt 0.584381 0.628617
vt 0.008467 0.799887
vt 0.069451 0.847788
vt 0.122015 0.883317
vt 0.149114 0.918321
vt 0.248017 0.597929
vt 0.645920 0.603682
vt 0.021364 0.739210
vt 0.056668 0.796487
vt 0.120661 0.833413
vt 0.055686 0.755772
vt 0.118117 0.783474
vt 0.089993 0.732573
vt 0.163987 0.764754
vt 0.182981 0.816840
vt 0.133511 0.705868
vt 0.187301 0.868281
vt 0.215941 0.921104
vt 0.233770 0.964505
vt 0.531531 0.363103
vt 0.580927 0.277501
vt 0.603992 0.341947
vt 0.581126 0.423017
vt 0.625969 0.390312
vt 0.617566 0.459886
vt 0.648025 0.431929
vt 0.651834 0.502911
vt 0.697452 0.475163
vt 0.695875 0.555706
vt 0.752645 0.516768
vt 0.097602 0.640413
vt 0.051630 0.684846
vt 0.162748 0.630350
vt 0.687562 0.055031
vt 0.292025 0.411064
vt 0.442570 0.682854
vt 0.372237 0.663501
vt 0.093068 0.969526
vt 0.593859 0.682750
vt 0.518496 0.690337
vt 0.878286 0.331147
vt 0.877392 0.413216
vt 0.234299 0.669656
vt 0.795379 0.162550
vt 0.828101 0.245132
vt 0.308618 0.957443
vt 0.182044 0.574248
vt 0.160439 0.985183
vt 0.737813 0.606807
vt 0.667895 0.656410
vt 0.810012 0.556306
vt 0.452767 0.341602
vt 0.366029 0.361981
vt 0.616830 0.106233
vt 0.233197 0.479021
vt 0.776851 0.000000
vn -0.210358 -0.960805 0.180566
vn -0.118275 -0.981880 0.148065
vn -0.213388 -0.866722 0.450841
vn -0.370086 -0.858487 0.355015
vn -0.030676 -0.991598 0.125670
vn -0.035698 -0.893136 0.448368
vn -0.023976 -0.127004 0.991612
vn -0.342349 0.046599 0.938416
vn -0.704718 0.057208 0.707177
vn 0.033254 -0.990558 0.133003
vn 0.137653 -0.827793 0.543885
vn 0.149655 -0.982303 0.112629
vn 0.407055 -0.826334 0.389202
vn 0.702593 0.114750 0.702279
vn 0.226441 -0.034070 0.973429
vn 0.072375 0.785283 0.614892
vn -0.021079 0.826508 0.562530
vn 0.316402 0.891465 0.324314
vn 0.167476 0.973870 0.153391
vn 0.011456 0.966195 0.257557
vn -0.041005 0.953313 0.299188
vn -0.146777 0.867545 0.475208
vn -0.330486 0.879798 0.341665
vn -0.111541 0.959852 0.257378
vn -0.202989 0.957441 0.205187
vn -0.092414 0.992745 0.076925
vn -0.232150 0.966321 0.111044
vn -0.021455 0.998829 0.043363
vn 0.012099 0.999339 -0.034286
vn -0.079869 0.996760 0.009481
vn -0.257953 0.964736 0.052397
vn 0.051112 0.998682 -0.004645
vn 0.243136 0.969594 -0.027803
vn 0.249026 0.966703 -0.058925
vn 0.101557 0.993126 -0.058204
vn 0.114559 0.990978 -0.069569
vn 0.019487 0.998587 -0.049449
vn 0.259360 0.957854 -0.123480
vn 0.303622 0.933856 -0.189017
vn 0.150946 0.972847 -0.175456
vn 0.018048 0.984857 -0.172426
vn -0.084618 0.995351 -0.046006
vn -0.290224 0.955566 -0.051609
vn -0.073897 0.981427 -0.177029
vn -0.337177 0.886888 -0.315819
vn -0.219557 0.785871 -0.578102
vn -0.512482 0.665754 -0.542341
vn -0.042639 0.904396 -0.424559
vn -0.209708 0.065759 -0.975550
vn -0.384900 -0.061957 -0.920877
vn -0.695868 -0.055148 -0.716049
vn 0.176186 0.889995 -0.420555
vn 0.424820 0.859248 -0.284993
vn 0.793616 -0.046987 -0.606601
vn 0.310262 0.065881 -0.948366
vn 0.136335 -0.857007 -0.496942
vn -0.130951 -0.881864 -0.452954
vn 0.429794 -0.826999 -0.362424
vn 0.202832 -0.960351 -0.191274
vn 0.027455 -0.978417 -0.204810
vn -0.102401 -0.973878 -0.202671
vn -0.208419 -0.884953 -0.416436
vn -0.372379 -0.861575 -0.344998
vn -0.157346 -0.968331 -0.193850
vn -0.209249 -0.963676 -0.165962
vn -0.139159 -0.986408 -0.087369
vn -0.245728 -0.963813 -0.103359
vn -0.064398 -0.997210 -0.037750
vn -0.022039 -0.997717 0.063841
vn -0.085598 -0.995754 0.033859
vn -0.212270 -0.977141 0.011705
vn 0.009060 -0.999915 0.009390
vn 0.163195 -0.986537 0.010562
vn 0.199962 -0.976309 0.082681
vn 0.027163 -0.995658 0.089037
vn 0.018070 -0.999502 0.025872
vn -0.016356 -0.998786 0.046460
vn 0.211999 -0.975020 0.066285
vn -0.076103 -0.993849 0.080451
vn -0.207071 -0.972122 0.110003
vn 0.550079 -0.816536 0.175163
vn 0.556754 -0.828984 0.053016
vn 0.990694 0.135510 -0.012721
vn 0.949959 -0.047032 0.308812
vn 0.495378 -0.861874 -0.108503
vn 0.935060 -0.184694 -0.302575
vn 0.480407 0.851194 -0.211372
vn 0.467361 0.882413 -0.054050
vn 0.567712 0.813161 0.128343
vn -0.499898 -0.850794 -0.162020
vn -0.467275 -0.884073 0.008317
vn -0.999429 -0.031432 0.012383
vn -0.948132 -0.038902 -0.315487
vn -0.446967 -0.877320 0.174728
vn -0.938553 -0.002672 0.345124
vn -0.437770 0.884320 0.162284
vn -0.523170 0.851457 0.036236
vn -0.634021 0.755385 -0.165560
s 1
g pCube1
usemtl lambert3SG
f 1/56/1 75/62/2 27/63/3 82/57/4
f 75/62/2 15/88/5 51/90/6 27/63/3
f 27/63/3 51/90/6 21/92/7 54/70/8
f 82/57/4 27/63/3 54/70/8 18/64/9
f 15/88/5 76/89/10 28/91/11 51/90/6
f 76/89/10 2/34/12 77/33/13 28/91/11
f 28/91/11 77/33/13 16/31/14 52/93/15
f 51/90/6 28/91/11 52/93/15 21/92/7
f 21/92/7 52/93/15 29/114/16 53/112/17
f 52/93/15 16/31/14 78/28/18 29/114/16
f 29/96/16 78/106/18 4/24/19 79/23/20
f 53/94/17 29/96/16 79/23/20 17/79/21
f 18/64/9 54/70/8 30/113/22 81/102/23
f 54/70/8 21/92/7 53/112/17 30/113/22
f 30/95/22 53/94/17 17/79/21 80/76/24
f 81/71/23 30/95/22 80/76/24 3/74/25
f 3/74/25 80/76/24 31/75/26 88/72/27
f 80/76/24 17/79/21 55/77/28 31/75/26
f 31/75/26 55/77/28 22/78/29 58/73/30
f 88/72/27 31/75/26 58/73/30 9/66/31
f 17/79/21 79/23/20 32/16/32 55/77/28
f 79/23/20 4/24/19 83/17/33 32/16/32
f 32/16/32 83/17/33 19/11/34 56/10/35
f 55/77/28 32/16/32 56/10/35 22/78/29
f 22/78/29 56/10/35 33/5/36 57/80/37
f 56/10/35 19/11/34 84/6/38 33/5/36
f 33/5/36 84/6/38 6/2/39 85/1/40
f 57/80/37 33/5/36 85/1/40 20/81/41
f 9/66/31 58/73/30 34/67/42 87/60/43
f 58/73/30 22/78/29 57/80/37 34/67/42
f 34/67/42 57/80/37 20/81/41 86/68/44
f 87/60/43 34/67/42 86/68/44 5/61/45
f 5/61/45 86/68/44 35/111/46 94/101/47
f 86/68/44 20/81/41 59/82/48 35/111/46
f 35/69/46 59/110/48 23/118/49 62/54/50
f 94/53/47 35/69/46 62/54/50 12/44/51
f 20/81/41 85/1/40 36/109/52 59/82/48
f 85/1/40 6/2/39 89/3/53 36/109/52
f 36/4/52 89/107/53 10/8/54 60/9/55
f 59/119/48 36/4/52 60/9/55 23/97/49
f 23/97/49 60/9/55 37/15/56 61/117/57
f 60/9/55 10/8/54 90/14/58 37/15/56
f 37/15/56 90/14/58 8/21/59 91/22/60
f 61/117/57 37/15/56 91/22/60 11/46/61
f 12/44/51 62/54/50 38/45/62 93/38/63
f 62/54/50 23/118/49 61/98/57 38/45/62
f 38/45/62 61/98/57 11/116/61 92/39/64
f 93/38/63 38/45/62 92/39/64 7/35/65
f 7/35/65 92/39/64 39/40/66 98/36/67
f 92/39/64 11/116/61 63/115/68 39/40/66
f 39/40/66 63/115/68 24/83/69 66/48/70
f 98/36/67 39/40/66 66/48/70 14/41/71
f 11/46/61 91/22/60 40/84/72 63/47/68
f 91/22/60 8/21/59 95/25/73 40/84/72
f 40/84/72 95/25/73 13/29/74 64/85/75
f 63/47/68 40/84/72 64/85/75 24/83/69
f 24/83/69 64/85/75 41/87/76 65/86/77
f 64/85/75 13/29/74 96/32/78 41/87/76
f 41/87/76 96/32/78 2/34/12 76/89/10
f 65/86/77 41/87/76 76/89/10 15/88/5
f 14/41/71 66/48/70 42/55/79 97/49/80
f 66/48/70 24/83/69 65/86/77 42/55/79
f 42/55/79 65/86/77 15/88/5 75/62/2
f 97/49/80 42/55/79 75/62/2 1/56/1
f 2/34/12 96/32/78 43/30/81 77/33/13
f 96/32/78 13/29/74 67/26/82 43/30/81
f 43/30/81 67/26/82 25/19/83 70/27/84
f 77/33/13 43/30/81 70/27/84 16/31/14
f 13/29/74 95/25/73 44/18/85 67/26/82
f 95/25/73 8/21/59 90/14/58 44/18/85
f 44/18/85 90/14/58 10/8/54 68/12/86
f 67/26/82 44/18/85 68/12/86 25/19/83
f 25/19/83 68/12/86 45/108/87 69/104/88
f 68/12/86 10/8/54 89/107/53 45/108/87
f 45/7/87 89/3/53 6/2/39 84/6/38
f 69/13/88 45/7/87 84/6/38 19/11/34
f 16/31/14 70/27/84 46/105/89 78/28/18
f 70/27/84 25/19/83 69/104/88 46/105/89
f 46/20/89 69/13/88 19/11/34 83/17/33
f 78/106/18 46/20/89 83/17/33 4/24/19
f 7/35/65 98/36/67 47/37/90 93/38/63
f 98/36/67 14/41/71 71/42/91 47/37/90
f 47/37/90 71/42/91 26/51/92 74/43/93
f 93/38/63 47/37/90 74/43/93 12/44/51
f 14/41/71 97/49/80 48/50/94 71/42/91
f 97/49/80 1/56/1 82/57/4 48/50/94
f 48/50/94 82/57/4 18/64/9 72/58/95
f 71/42/91 48/50/94 72/58/95 26/51/92
f 26/51/92 72/58/95 49/103/96 73/99/97
f 72/58/95 18/64/9 81/102/23 49/103/96
f 49/65/96 81/71/23 3/74/25 88/72/27
f 73/59/97 49/65/96 88/72/27 9/66/31
f 12/44/51 74/43/93 50/100/98 94/53/47
f 74/43/93 26/51/92 73/99/97 50/100/98
f 50/52/98 73/59/97 9/66/31 87/60/43
f 94/101/47 50/52/98 87/60/43 5/61/45
